<svg id="Capa_1" data-name="Capa 1" xmlns="http://www.w3.org/2000/svg" viewBox="0 0 500 321.71"><title>about1</title><path d="M364.25,236.2a73.53,73.53,0,1,0-73.53-73.53A73.61,73.61,0,0,0,364.25,236.2Zm0-124.43a50.9,50.9,0,1,1-50.91,50.9A51,51,0,0,1,364.25,111.77Z" transform="translate(0 -89.15)"/><path d="M364.25,263.35a135.86,135.86,0,0,0-101.76,45.9,11.31,11.31,0,0,0,17,15,113.25,113.25,0,0,1,73.49-37.68v11.18a11.31,11.31,0,1,0,22.62,0V286.54A113.28,113.28,0,0,1,477.38,399.1a11.31,11.31,0,1,0,22.62,0C500,324.25,439.1,263.35,364.25,263.35Z" transform="translate(0 -89.15)"/><path d="M135.75,236.2a73.53,73.53,0,1,0-73.53-73.53A73.61,73.61,0,0,0,135.75,236.2Zm0-124.43a50.9,50.9,0,1,1-50.9,50.9A51,51,0,0,1,135.75,111.77Z" transform="translate(0 -89.15)"/><path d="M135.75,263.35C60.9,263.35,0,324.25,0,399.1a11.31,11.31,0,1,0,22.62,0A113.28,113.28,0,0,1,124.43,286.54v11.19a11.31,11.31,0,1,0,22.62,0V286.54A113.28,113.28,0,0,1,248.87,399.1a11.31,11.31,0,1,0,22.62,0C271.49,324.25,210.6,263.35,135.75,263.35Z" transform="translate(0 -89.15)"/><path d="M135.75,320.36a11.31,11.31,0,0,0-11.31,11.31v67.87a11.31,11.31,0,1,0,22.62,0V331.67A11.31,11.31,0,0,0,135.75,320.36Z" transform="translate(0 -89.15)"/><path d="M364.25,320.36a11.31,11.31,0,0,0-11.31,11.31v67.87a11.31,11.31,0,1,0,22.62,0V331.67A11.31,11.31,0,0,0,364.25,320.36Z" transform="translate(0 -89.15)"/></svg>