<svg id="Capa_1" data-name="Capa 1" xmlns="http://www.w3.org/2000/svg" viewBox="0 0 500 447.74"><title>about3</title><path d="M382.23,214.34c0-.09,0-0.19,0-0.28a11,11,0,0,0-.28-1.36h0a11.3,11.3,0,0,0-.43-1.25l-0.15-.35q-0.2-.44-0.44-0.88c-0.07-.13-0.14-0.25-0.21-0.37l-0.11-.2c-0.17-.27-0.35-0.52-0.54-0.76l-0.1-.14a11.06,11.06,0,0,0-.91-1l-0.19-.18c-0.28-.27-0.57-0.52-0.87-0.76l-0.23-.18a11.34,11.34,0,0,0-1.25-.82L209.85,111l96-60.42,160.87,91.44-67.75,42.66A11.31,11.31,0,0,0,411,203.87l83.74-52.73a11.31,11.31,0,0,0-.44-19.41L311.09,27.61a11.31,11.31,0,0,0-11.62.26l-117.6,74.05-0.07,0L123,139,123,139,5.29,213.12a11.31,11.31,0,0,0,.44,19.41L188.91,336.65a11.31,11.31,0,0,0,11.62-.26l83.74-52.73a11.31,11.31,0,0,0-12.05-19.15l-78,49.12L33.33,222.19l96-60.42,171.57,97.52V388.46A11.31,11.31,0,0,0,318.2,398L377,361a11.31,11.31,0,0,0,5.29-9.57V215.66c0-.07,0-0.13,0-0.2A11.27,11.27,0,0,0,382.23,214.34ZM323.48,368V252.71a11.31,11.31,0,0,0-5.72-9.83L151,148.1l37.12-23.37L349,216.16,334.91,225A11.31,11.31,0,1,0,347,244.17l12.74-8v109Z" transform="translate(0 -26.13)"/><path d="M482.66,177.24L398.92,230A11.31,11.31,0,1,0,411,249.11l83.74-52.73A11.31,11.31,0,0,0,482.66,177.24Z" transform="translate(0 -26.13)"/><path d="M272.21,309.76l-78,49.12L16.9,258.11A11.31,11.31,0,1,0,5.72,277.77L188.91,381.9a11.31,11.31,0,0,0,11.62-.26l83.74-52.73A11.31,11.31,0,0,0,272.21,309.76Z" transform="translate(0 -26.13)"/><path d="M482.66,222.49l-83.74,52.73A11.31,11.31,0,1,0,411,294.36l83.74-52.73A11.31,11.31,0,0,0,482.66,222.49Z" transform="translate(0 -26.13)"/><path d="M272.21,355l-78,49.12L16.9,303.35A11.31,11.31,0,1,0,5.72,323L188.91,427.15a11.31,11.31,0,0,0,11.62-.26l83.74-52.73A11.31,11.31,0,0,0,272.21,355Z" transform="translate(0 -26.13)"/><path d="M482.66,267.74l-83.74,52.73A11.31,11.31,0,1,0,411,339.61l83.74-52.73A11.31,11.31,0,0,0,482.66,267.74Z" transform="translate(0 -26.13)"/><path d="M272.21,400.26l-78,49.12L16.9,348.6A11.31,11.31,0,1,0,5.72,368.27L188.91,472.39a11.31,11.31,0,0,0,11.62-.26l83.74-52.73A11.31,11.31,0,0,0,272.21,400.26Z" transform="translate(0 -26.13)"/></svg>