<svg id="Capa_1" data-name="Capa 1" xmlns="http://www.w3.org/2000/svg" viewBox="0 0 500 398.06"><defs><style>.cls-1{fill:#fee72f;stroke:#000;stroke-miterlimit:10;}</style></defs><title>bag</title><rect class="cls-1" x="15.5" y="73.53" width="466.67" height="131.33"/><path d="M473.54,106.54H328.37V62.28A11.31,11.31,0,0,0,317.06,51H182.94a11.31,11.31,0,0,0-11.31,11.31v44.26H26.46A26.49,26.49,0,0,0,0,133V422.57A26.49,26.49,0,0,0,26.46,449H473.54A26.49,26.49,0,0,0,500,422.57V133A26.49,26.49,0,0,0,473.54,106.54ZM194.25,73.59h111.5v32.95H194.25V73.59h0ZM22.62,133a3.84,3.84,0,0,1,3.84-3.84H473.54a3.84,3.84,0,0,1,3.84,3.84v84.15a36.53,36.53,0,0,1-36.48,36.48H286V216a11.31,11.31,0,0,0-11.31-11.31H225.36A11.31,11.31,0,0,0,214,216v37.59H59.11a36.52,36.52,0,0,1-36.48-36.48V133Zm214,143.26h26.66v13a13.33,13.33,0,0,1-26.66,0v-13Zm0-22.62V227.35h26.66v26.28H236.67ZM473.54,426.41H26.46a3.84,3.84,0,0,1-3.84-3.83v-159a58.8,58.8,0,0,0,36.48,12.66H214v13a36,36,0,0,0,71.91,0v-13H440.89a58.8,58.8,0,0,0,36.48-12.66v159A3.84,3.84,0,0,1,473.54,426.41Z" transform="translate(0 -50.97)"/></svg>