<svg id="Layer_1" data-name="Layer 1" xmlns="http://www.w3.org/2000/svg" viewBox="0 0 500 303.2"><title>eye</title><path d="M496,238.42c-75.52-92.87-157.06-140-242.58-140-33.88,0-68.17,7.55-102.05,22.35-26.64,11.74-53.07,28-78.48,48.27-43,34.39-68.27,68.68-69.3,70.11A18.53,18.53,0,0,0,4,261.58c75.42,93,157.06,140,242.58,140,33.88,0,68.17-7.55,102.05-22.35,26.64-11.74,53.07-28,78.48-48.27,43-34.39,68.27-68.68,69.29-70.11A18.53,18.53,0,0,0,496,238.42Zm-92.56,64.5c-35.51,28.27-91.44,61.95-156.76,61.95-70.52,0-139.3-38.68-204.62-115a403.82,403.82,0,0,1,54.5-52.66C132,168.92,188,135.24,253.27,135.24c70.52,0,139.3,38.68,204.62,115A397.52,397.52,0,0,1,403.39,302.92Z" transform="translate(0 -98.4)"/><path d="M317.66,231.68a18.42,18.42,0,0,0-18.37,18.37,49.39,49.39,0,1,1-49.4-49.39,18.37,18.37,0,0,0,0-36.74A86.13,86.13,0,1,0,336,250.05,18.42,18.42,0,0,0,317.66,231.68Z" transform="translate(0 -98.4)"/></svg>