<svg id="Layer_1" data-name="Layer 1" xmlns="http://www.w3.org/2000/svg" viewBox="0 0 32 32"><defs><style>.cls-1{fill:#23abd0;}</style></defs><title>gp</title><path class="cls-1" d="M16,2A14,14,0,1,1,2,16,14,14,0,0,1,16,2m0-2A16,16,0,1,0,32,16,16,16,0,0,0,16,0h0Z"/><path class="cls-1" d="M13.66,14.55V17H17a3.05,3.05,0,0,1-3.34,2.45,3.67,3.67,0,0,1,0-7.35,3.5,3.5,0,0,1,2.4.9c0.51-.51.46-0.58,1.76-1.8A6.18,6.18,0,1,0,13.66,22c5.09,0,6.34-4.44,5.93-7.41H13.66Zm11.12,0.12V12.53H23.26v2.14h-2.2v1.53h2.2v2.2h1.53v-2.2h2.14V14.68H24.78Z"/></svg>