<svg id="Layer_1" data-name="Layer 1" xmlns="http://www.w3.org/2000/svg" viewBox="0 0 32 32"><defs><style>.cls-1{fill:#23abd0;}</style></defs><title>inst</title><path class="cls-1" d="M16,2A14,14,0,1,1,2,16,14,14,0,0,1,16,2m0-2A16,16,0,1,0,32,16,16,16,0,0,0,16,0h0Z"/><path class="cls-1" d="M16,9.44c2.14,0,2.39,0,3.23,0a4.41,4.41,0,0,1,1.49.28,2.64,2.64,0,0,1,1.52,1.52,4.39,4.39,0,0,1,.28,1.48c0,0.84,0,1.1,0,3.23s0,2.39,0,3.23a4.38,4.38,0,0,1-.28,1.48,2.65,2.65,0,0,1-1.52,1.52,4.42,4.42,0,0,1-1.49.28c-0.84,0-1.1,0-3.23,0s-2.39,0-3.23,0a4.42,4.42,0,0,1-1.49-.28,2.65,2.65,0,0,1-1.52-1.52,4.39,4.39,0,0,1-.28-1.48c0-.84,0-1.1,0-3.23s0-2.39,0-3.23a4.41,4.41,0,0,1,.28-1.48,2.64,2.64,0,0,1,1.52-1.52,4.41,4.41,0,0,1,1.48-.28c0.84,0,1.1,0,3.23,0M16,8c-2.17,0-2.44,0-3.3,0a5.88,5.88,0,0,0-1.94.37,4.09,4.09,0,0,0-2.34,2.34A5.88,5.88,0,0,0,8,12.7c0,0.85,0,1.12,0,3.3s0,2.44,0,3.3a5.88,5.88,0,0,0,.37,1.94,4.1,4.1,0,0,0,2.34,2.34A5.92,5.92,0,0,0,12.7,24c0.85,0,1.13,0,3.3,0s2.44,0,3.3,0a5.9,5.9,0,0,0,1.94-.37,4.09,4.09,0,0,0,2.34-2.34A5.86,5.86,0,0,0,24,19.3c0-.85,0-1.13,0-3.3s0-2.44,0-3.3a5.85,5.85,0,0,0-.37-1.94,4.08,4.08,0,0,0-2.34-2.34A5.87,5.87,0,0,0,19.3,8C18.44,8,18.17,8,16,8h0Zm0,3.9A4.11,4.11,0,1,0,20.13,16,4.11,4.11,0,0,0,16,11.9h0Zm0,6.78A2.67,2.67,0,1,1,18.68,16,2.67,2.67,0,0,1,16,18.68h0Zm5.19-7a1,1,0,1,1-1-1,1,1,0,0,1,1,1h0Z"/></svg>