<?xml version="1.0" encoding="UTF-8" standalone="no"?>
<svg
   xmlns:dc="http://purl.org/dc/elements/1.1/"
   xmlns:cc="http://creativecommons.org/ns#"
   xmlns:rdf="http://www.w3.org/1999/02/22-rdf-syntax-ns#"
   xmlns:svg="http://www.w3.org/2000/svg"
   xmlns="http://www.w3.org/2000/svg"
   viewBox="0 0 200.01155 317.561"
   height="317.561"
   width="200.01155"
   version="1.1"
   id="svg2">
  <metadata
     id="metadata8">
    <rdf:RDF>
      <cc:Work
         rdf:about="">
        <dc:format>image/svg+xml</dc:format>
        <dc:type
           rdf:resource="http://purl.org/dc/dcmitype/StillImage" />
        <dc:title></dc:title>
      </cc:Work>
    </rdf:RDF>
  </metadata>
  <defs
     id="defs6" />
  <path
     id="path3338"
     d="M 81.408731,316.27891 C 39.81427,307.45663 9.9037975,277.16227 1.9267275,235.77684 c -2.56897,-13.32794 -2.56897,-142.07715 0,-155.40508 C 8.8529075,44.438417 32.34678,16.726847 66.826881,3.820543 76.859241,0.06531 77.42904,0 100.15873,0 c 22.72969,0 23.29949,0.06531 33.33185,3.820543 35.27732,13.204715 59.59116,42.686338 65.36741,79.260937 1.05416,6.67486 1.35086,29.84999 1.0321,80.61782 -0.38616,61.50439 -0.72769,72.19289 -2.49689,78.14344 -3.98078,13.38913 -7.43953,21.22451 -13.34902,30.24063 -14.2755,21.78015 -34.05199,35.94444 -60.11701,43.05693 -9.72462,2.6536 -32.500169,3.26351 -42.518439,1.13861 z m 35.624999,-20.06895 c 22.43434,-4.66874 44.0954,-21.42431 54.20309,-41.92797 8.72973,-17.70847 8.8785,-19.32052 8.8785,-96.20769 0,-77.03736 -0.14993,-78.64799 -8.95958,-96.249998 -13.1372,-26.24859 -41.49597,-43.706592 -70.99701,-43.706592 -29.501039,0 -57.859819,17.458002 -70.996999,43.706592 -8.809663,17.602008 -8.959593,19.212638 -8.959593,96.249998 0,77.03735 0.14993,78.64799 8.959593,96.25 16.0009,31.9704 52.322559,49.28372 87.871999,41.88566 z m -21.306809,-164.95385 -3.06819,-3.06817 0,-28.86364 0,-28.863637 3.06819,-3.06818 c 4.05917,-4.05918 9.804449,-4.05918 13.863619,0 l 3.06819,3.06818 0,28.863637 0,28.86364 -3.06819,3.06817 c -1.93404,1.93405 -4.49635,3.06819 -6.93181,3.06819 -2.43546,0 -4.99778,-1.13414 -6.93181,-3.06819 z"
     style="fill:#020202" />
</svg>
