<svg id="Capa_1" data-name="Capa 1" xmlns="http://www.w3.org/2000/svg" viewBox="0 0 461.88 500"><defs><style>.cls-1{fill:#fee72f;stroke:#000;stroke-miterlimit:10;}</style></defs><title>pig</title><path d="M454,255.6H421.65c-9.66-20.69-24.71-39.48-44-54.91-0.39-23-2-40.43-5-53.22-4.62-19.81-13.36-29.85-26-29.85-13.78,0-43.1,17.23-65.66,42.58a222.59,222.59,0,0,0-30.81-2.14c-48.7,0-94.58,15.63-129.2,44-31.4,25.75-50.23,59.21-54,95.37a35.42,35.42,0,0,1-24.29-33.58,11.79,11.79,0,0,0-23.58,0A59,59,0,0,0,66.67,321.7c3.16,37.58,22.91,73,55.5,99.24L112,478.38A11.79,11.79,0,0,0,121.61,492l44.13,7.78a11.79,11.79,0,0,0,13.66-9.56l6.33-35.91a220.33,220.33,0,0,0,128.85,0l6.33,35.91a11.79,11.79,0,0,0,13.66,9.56L378.68,492a11.79,11.79,0,0,0,9.56-13.66l-10.13-57.44c19.08-15.37,33.95-34,43.52-54.51H454a27,27,0,0,0,27-27V282.59A27,27,0,0,0,454,255.6Zm0,87.25H413.89a11.79,11.79,0,0,0-11,7.45c-8.49,21.45-23.93,40.87-44.66,56.17A11.79,11.79,0,0,0,353.66,418L363,470.86l-20.9,3.69-6.69-37.95a11.79,11.79,0,0,0-15.88-8.94,195.19,195.19,0,0,1-138.71,0,11.79,11.79,0,0,0-15.88,8.94l-6.69,37.95-20.9-3.69L146.63,418A11.79,11.79,0,0,0,142,406.48C108.83,382,89.8,347.18,89.8,311c0-71.34,71.93-129.38,160.35-129.38a198.19,198.19,0,0,1,33.51,2.84,11.79,11.79,0,0,0,11.13-4.16c18.62-22.81,42.74-36.89,50.7-38.89,2,2.94,8.24,15.89,8.63,65.2a11.79,11.79,0,0,0,4.74,9.36c20.42,15.23,35.66,34.5,44.07,55.74a11.79,11.79,0,0,0,11,7.45H454a3.41,3.41,0,0,1,3.41,3.4v5.31h-1a11.79,11.79,0,1,0,0,23.58h1v28A3.41,3.41,0,0,1,454,342.85Z" transform="translate(-19.06)"/><path d="M250.15,126.16a63.08,63.08,0,1,0-63.08-63.08A63.15,63.15,0,0,0,250.15,126.16Zm0-102.58a39.5,39.5,0,1,1-39.5,39.5A39.54,39.54,0,0,1,250.15,23.58Z" transform="translate(-19.06)"/><path d="M296.27,209.46a154.4,154.4,0,0,0-92.25,0,11.79,11.79,0,1,0,7.14,22.48,130.8,130.8,0,0,1,78,0A11.79,11.79,0,0,0,296.27,209.46Z" transform="translate(-19.06)"/><ellipse class="cls-1" cx="231.44" cy="62.5" rx="42" ry="44"/></svg>