<svg id="Layer_1" data-name="Layer 1" xmlns="http://www.w3.org/2000/svg" viewBox="0 0 32 32"><defs><style>.cls-1{fill:#23abd0;}</style></defs><title>tw</title><path class="cls-1" d="M16,2A14,14,0,1,1,2,16,14,14,0,0,1,16,2m0-2A16,16,0,1,0,32,16,16,16,0,0,0,16,0h0Z"/><path class="cls-1" d="M21.84,12.58a3.29,3.29,0,0,0,1.38-1.83,6.08,6.08,0,0,1-2,.8,3,3,0,0,0-2.29-1,3.22,3.22,0,0,0-3.13,3.3,3.45,3.45,0,0,0,.08.75,8.75,8.75,0,0,1-6.46-3.45A3.44,3.44,0,0,0,9,12.78a3.36,3.36,0,0,0,1.39,2.75A3,3,0,0,1,9,15.12v0a3.27,3.27,0,0,0,2.52,3.24,3,3,0,0,1-.83.12,2.92,2.92,0,0,1-.59-0.06A3.16,3.16,0,0,0,13,20.75a6.07,6.07,0,0,1-4.64,1.37,8.53,8.53,0,0,0,4.8,1.48c5.77,0,8.91-5,8.91-9.4,0-.14,0-0.29,0-0.43a6.54,6.54,0,0,0,1.56-1.71,5.94,5.94,0,0,1-1.8.52h0Z"/></svg>