<svg id="Layer_1" data-name="Layer 1" xmlns="http://www.w3.org/2000/svg" viewBox="0 0 32 32"><defs><style>.cls-1{fill:#23abd0;}</style></defs><title>fb</title><path class="cls-1" d="M16,2A14,14,0,1,1,2,16,14,14,0,0,1,16,2m0-2A16,16,0,1,0,32,16,16,16,0,0,0,16,0h0Z"/><path class="cls-1" d="M12.48,10.24A21.23,21.23,0,0,1,15.93,10a6.5,6.5,0,0,1,3.48.67A2.57,2.57,0,0,1,20.83,13a2.67,2.67,0,0,1-1.94,2.52v0a3,3,0,0,1,2.34,2.9A3.14,3.14,0,0,1,20,20.93c-0.86.68-2.29,1.07-4.64,1.07a20.59,20.59,0,0,1-2.89-.17V10.24Zm2.64,4.51H16c1.4,0,2.15-.58,2.15-1.45s-0.68-1.36-1.89-1.36a7.51,7.51,0,0,0-1.14.07v2.75Zm0,5.23a8.85,8.85,0,0,0,1,0c1.21,0,2.28-.45,2.28-1.7s-1.07-1.66-2.4-1.66H15.12V20h0Z"/></svg>