<?xml version="1.0" standalone="no"?>
<!DOCTYPE svg PUBLIC "-//W3C//DTD SVG 1.1//EN" "http://www.w3.org/Graphics/SVG/1.1/DTD/svg11.dtd" >
<svg xmlns="http://www.w3.org/2000/svg">
<metadata>Generated by IcoMoon</metadata>
<defs>
<font id="icomoon" horiz-adv-x="1024">
<font-face units-per-em="1024" ascent="960" descent="-64" />
<missing-glyph horiz-adv-x="1024" />
<glyph unicode="&#x20;" horiz-adv-x="512" d="" />
<glyph unicode="&#xe900;" glyph-name="about2" horiz-adv-x="946" d="M890.757 427.388h-66.253c-19.784 42.373-50.606 80.855-90.112 112.456-0.799 47.104-4.096 82.801-10.24 108.995-9.462 40.571-27.361 61.133-53.248 61.133-28.221 0-88.269-35.287-134.472-87.204-18.947 2.79-40.818 4.383-63.061 4.383-0.013 0-0.027 0-0.040 0h0.002c-99.738 0-193.7-32.010-264.602-90.112-64.307-52.736-102.871-121.262-110.592-195.318-29.112 9.847-49.703 36.899-49.746 68.767v0.005c0 13.335-10.81 24.146-24.146 24.146s-24.146-10.81-24.146-24.146v0c0.031-58.418 41.513-107.138 96.626-118.345l0.777-0.132c6.472-76.964 46.92-149.504 113.664-203.244l-20.828-117.637c-0.223-1.233-0.351-2.652-0.351-4.101 0-11.882 8.582-21.759 19.886-23.771l0.146-0.022 90.378-15.933c1.262-0.234 2.714-0.368 4.198-0.368 11.851 0 21.709 8.538 23.756 19.799l0.022 0.147 12.964 73.544c39.47-12.511 84.864-19.721 131.942-19.721s92.473 7.21 135.14 20.585l-3.197-0.864 12.964-73.544c2.069-11.408 11.927-19.947 23.778-19.947 1.483 0 2.936 0.134 4.345 0.39l-0.147-0.022 90.337 15.933c11.408 2.069 19.947 11.927 19.947 23.778 0 1.483-0.134 2.936-0.39 4.345l0.022-0.147-20.746 117.637c39.076 31.478 69.53 69.632 89.129 111.636h66.294c30.539 0 55.296 24.757 55.296 55.296v0 116.326c-0.012 30.53-24.764 55.276-55.296 55.276v0zM890.757 248.7h-82.145c-0.023 0-0.050 0-0.077 0-10.135 0-18.812-6.244-22.393-15.096l-0.058-0.162c-17.388-43.93-49.009-83.702-91.464-115.036-5.935-4.449-9.735-11.468-9.735-19.374 0-1.498 0.136-2.965 0.398-4.388l-0.023 0.148 19.128-108.257-42.803-7.557-13.701 77.722c-2.069 11.409-11.926 19.948-23.778 19.948-3.146 0-6.151-0.602-8.907-1.696l0.163 0.057c-42.163-16.514-90.983-26.086-142.039-26.086s-99.876 9.571-144.764 27.018l2.725-0.932c-2.593 1.037-5.598 1.639-8.744 1.639-11.852 0-21.709-8.539-23.756-19.801l-0.022-0.147-13.701-77.722-42.803 7.557 19.005 108.257c0.228 1.245 0.358 2.678 0.358 4.141 0 7.952-3.844 15.006-9.775 19.406l-0.065 0.046c-67.932 50.135-106.906 121.446-106.906 195.543 0 146.104 147.313 264.97 328.397 264.97 0.048 0 0.104 0 0.161 0 24.189 0 47.883-2.116 70.908-6.173l-2.441 0.356c1.231-0.223 2.648-0.35 4.095-0.35 7.52 0 14.237 3.438 18.666 8.827l0.034 0.042c38.134 46.715 87.532 75.551 103.834 79.647 4.096-6.021 16.876-32.543 17.674-133.53 0.062-7.825 3.836-14.755 9.646-19.125l0.062-0.045c41.82-31.191 73.032-70.656 90.255-114.156 3.639-9.013 12.315-15.258 22.451-15.258 0.027 0 0.054 0 0.082 0h82.059c0 0 0 0 0 0 3.85 0 6.972-3.115 6.984-6.962v-10.876h-2.048c-13.335 0-24.146-10.81-24.146-24.146s10.81-24.146 24.146-24.146h2.048v-57.344c-0.012-3.848-3.134-6.963-6.984-6.963 0 0 0 0 0 0v0zM473.272 692.481c71.348 0 129.188 57.839 129.188 129.188s-57.839 129.188-129.188 129.188c-71.348 0-129.188-57.839-129.188-129.188v0c0.082-71.316 57.872-129.106 129.18-129.188h0.008zM473.272 902.565c44.678 0 80.896-36.218 80.896-80.896s-36.218-80.896-80.896-80.896c-44.678 0-80.896 36.218-80.896 80.896v0c0.047 44.659 36.237 80.849 80.891 80.896h0.005zM567.726 521.883c-28.241 9.159-60.736 14.44-94.464 14.44s-66.223-5.281-96.702-15.060l2.238 0.62c-9.848-3.198-16.841-12.292-16.841-23.020 0-13.339 10.814-24.153 24.153-24.153 2.612 0 5.126 0.415 7.482 1.181l-0.171-0.048c23.88 7.729 51.356 12.185 79.872 12.185s55.992-4.456 81.769-12.709l-1.897 0.525c2.080-0.649 4.472-1.022 6.951-1.022 13.335 0 24.146 10.81 24.146 24.146 0 10.613-6.848 19.627-16.366 22.865l-0.17 0.050z" />
<glyph unicode="&#xe901;" glyph-name="about3" d="M782.807 512.155c0 0.184 0 0.389 0 0.573-0.154 1.083-0.354 2.025-0.611 2.944l0.038-0.159c-0.29 1.035-0.591 1.886-0.937 2.712l0.057-0.152-0.307 0.717q-0.41 0.901-0.901 1.802c-0.143 0.266-0.287 0.512-0.43 0.758l-0.225 0.41c-0.348 0.553-0.717 1.065-1.106 1.556l-0.205 0.287c-0.602 0.745-1.211 1.413-1.859 2.043l-0.005 0.005-0.389 0.369c-0.573 0.553-1.167 1.065-1.782 1.556l-0.471 0.369c-0.739 0.564-1.575 1.119-2.447 1.619l-0.113 0.060-341.34 194.171 196.608 123.74 329.462-187.269-138.752-87.368c-6.574-4.169-10.874-11.408-10.874-19.651 0-12.809 10.384-23.193 23.193-23.193 4.566 0 8.824 1.32 12.413 3.598l-0.094-0.056 171.5 107.991c6.548 4.167 10.83 11.387 10.83 19.606 0 8.589-4.675 16.086-11.619 20.086l-0.112 0.060-375.214 213.238c-3.292 1.906-7.242 3.030-11.454 3.030-4.577 0-8.844-1.328-12.437-3.619l0.094 0.056-602.481-379.392c-6.548-4.167-10.83-11.387-10.83-19.606 0-8.589 4.675-16.086 11.619-20.086l0.112-0.060 375.153-213.238c3.292-1.906 7.242-3.030 11.454-3.030 4.577 0 8.844 1.328 12.437 3.619l-0.094-0.056 171.5 107.991c6.548 4.168 10.83 11.389 10.83 19.61 0 12.796-10.373 23.169-23.169 23.169-4.575 0-8.841-1.326-12.433-3.615l0.094 0.056-159.744-100.598-329.503 187.269 196.608 123.74 351.375-199.721v-264.54c0.062-12.745 10.409-23.053 23.163-23.053 4.546 0 8.786 1.309 12.363 3.572l-0.095-0.056 120.422 75.776c6.548 4.165 10.83 11.382 10.834 19.599v278.058c0 0.143 0 0.266 0 0.41-0.003 0.812-0.048 1.609-0.132 2.395l0.009-0.101zM662.487 197.459v236.114c-0.002 8.581-4.669 16.071-11.603 20.072l-0.112 0.060-341.524 194.109 76.022 47.862 329.482-187.249-28.856-18.104c-6.548-4.177-10.828-11.404-10.828-19.63 0-12.817 10.391-23.208 23.208-23.208 4.591 0 8.871 1.333 12.474 3.634l-0.093-0.056 26.092 16.384v-223.232zM988.488 588.136l-171.5-108.052c-6.889-4.099-11.432-11.505-11.432-19.973 0-12.793 10.37-23.163 23.163-23.163 4.857 0 9.365 1.495 13.088 4.050l-0.079-0.051 171.5 107.991c6.535 4.172 10.807 11.387 10.807 19.599 0 12.8-10.376 23.176-23.176 23.176-4.588 0-8.864-1.333-12.463-3.633l0.093 0.056zM557.486 316.735l-159.744-100.598-363.131 206.377c-3.374 2.030-7.447 3.231-11.8 3.231-12.793 0-23.163-10.37-23.163-23.163 0-8.724 4.823-16.321 11.948-20.272l0.119-0.060 375.173-213.258c3.292-1.906 7.242-3.030 11.454-3.030 4.577 0 8.844 1.328 12.437 3.619l-0.094-0.056 171.5 107.991c6.546 4.17 10.825 11.39 10.825 19.61 0 12.799-10.375 23.174-23.174 23.174-4.579 0-8.848-1.328-12.443-3.62l0.094 0.056zM988.488 495.464l-171.5-107.991c-6.535-4.172-10.807-11.387-10.807-19.599 0-12.8 10.376-23.176 23.176-23.176 4.588 0 8.864 1.333 12.463 3.633l-0.093-0.056 171.5 107.991c6.535 4.172 10.807 11.387 10.807 19.599 0 12.8-10.376 23.176-23.176 23.176-4.588 0-8.864-1.333-12.463-3.633l0.093 0.056zM557.486 224.083l-159.744-100.598-363.131 206.377c-3.446 2.145-7.628 3.417-12.108 3.417-12.793 0-23.163-10.37-23.163-23.163 0-8.847 4.96-16.535 12.25-20.436l0.124-0.061 375.173-213.299c3.292-1.906 7.242-3.030 11.454-3.030 4.577 0 8.844 1.328 12.437 3.619l-0.094-0.056 171.5 107.991c6.551 4.171 10.833 11.395 10.833 19.62 0 12.804-10.379 23.183-23.183 23.183-4.579 0-8.848-1.328-12.443-3.619l0.094 0.056zM988.488 402.792l-171.5-107.991c-6.535-4.172-10.807-11.387-10.807-19.599 0-12.8 10.376-23.176 23.176-23.176 4.588 0 8.864 1.333 12.463 3.633l-0.093-0.056 171.5 107.991c6.535 4.172 10.807 11.387 10.807 19.599 0 12.8-10.376 23.176-23.176 23.176-4.588 0-8.864-1.333-12.463-3.633l0.093 0.056zM557.486 131.391l-159.744-100.598-363.131 206.397c-3.29 1.903-7.238 3.026-11.448 3.026-12.795 0-23.168-10.373-23.168-23.168 0-8.585 4.67-16.080 11.608-20.082l0.112-0.060 375.173-213.238c3.292-1.906 7.242-3.030 11.454-3.030 4.577 0 8.844 1.328 12.437 3.619l-0.094-0.056 171.5 107.991c6.541 4.169 10.816 11.385 10.816 19.599 0 12.794-10.372 23.166-23.166 23.166-4.58 0-8.849-1.329-12.443-3.622l0.093 0.056z" />
<glyph unicode="&#xe902;" glyph-name="artl" d="M131.517 335.281l-131.517 103.064 264.314 206.848 0.659-160.943h759.021v-92.16h-759.040v-80c0-44-0.432-79.971-0.96-79.936s-60.143 46.442-132.477 103.128z" />
<glyph unicode="&#xe903;" glyph-name="artr" d="M892.477 335.281l131.517 103.064-264.314 206.848-0.659-160.943h-759.021v-92.16h759.040v-80c0-44 0.432-79.971 0.96-79.936s60.143 46.442 132.477 103.128z" />
<glyph unicode="&#xe904;" horiz-adv-x="749" d="M573.276 574.086c0-109.941-89.125-199.066-199.066-199.066s-199.066 89.125-199.066 199.066c0 109.941 89.125 199.066 199.066 199.066s199.066-89.125 199.066-199.066z" />
<glyph unicode="&#xe905;" horiz-adv-x="749" d="M744.305 590.102l-54.231 70.861 11.592 88.474c0.122 0.881 0.192 1.898 0.192 2.932 0 9.38-5.733 17.422-13.887 20.811l-0.149 0.055-82.371 34.14-34.12 82.432c-3.468 8.251-11.483 13.939-20.826 13.939-1.048 0-2.079-0.072-3.089-0.21l0.117 0.013-88.474-11.571-70.861 54.231c-3.756 2.908-8.534 4.661-13.722 4.661s-9.965-1.753-13.773-4.7l0.052 0.039-70.861-54.231-88.474 11.592c-0.893 0.125-1.924 0.197-2.971 0.197-9.344 0-17.359-5.688-20.771-13.791l-0.055-0.148-34.12-82.452-82.371-34.14c-8.251-3.468-13.939-11.483-13.939-20.826 0-1.048 0.072-2.079 0.21-3.089l-0.013 0.117 11.592-88.494-54.333-70.84c-2.908-3.756-4.661-8.534-4.661-13.722s1.753-9.965 4.7-13.773l-0.039 0.052 54.231-70.861-11.592-88.474c-0.127-0.898-0.199-1.936-0.199-2.99 0-9.383 5.737-17.427 13.895-20.814l0.149-0.055 82.432-34.12 34.14-82.452c2.988-7.087 9.298-12.251 16.925-13.579l0.135-0.019v-299.909c0-0.028 0-0.060 0-0.093 0-12.442 10.086-22.528 22.528-22.528 4.51 0 8.71 1.325 12.233 3.607l-0.088-0.053 145.039 92.099 145.121-92.058c3.435-2.229 7.635-3.554 12.145-3.554 12.442 0 22.528 10.086 22.528 22.528 0 0.018 0 0.036 0 0.055v-0.003 299.971c7.762 1.347 14.072 6.511 17.004 13.451l0.055 0.148 34.14 82.432 82.35 34.079c8.251 3.468 13.939 11.483 13.939 20.826 0 1.048-0.072 2.079-0.21 3.089l0.013-0.117-11.592 88.494 54.231 70.861c2.949 3.772 4.728 8.583 4.728 13.809 0 5.167-1.74 9.928-4.665 13.728l0.039-0.053zM386.58 68.169c-3.423 2.209-7.605 3.521-12.093 3.521s-8.67-1.313-12.182-3.575l0.089 0.054-122.532-77.824v263.885l50.053 6.554 70.861-54.231c3.756-2.908 8.534-4.661 13.722-4.661s9.965 1.753 13.773 4.7l-0.052-0.039 70.84 54.231 50.053-6.554v-263.721zM648.54 511.848c-2.905-3.755-4.657-8.531-4.657-13.716 0-1.035 0.070-2.053 0.205-3.051l-0.013 0.116 10.547-80.568-75.080-31.068c-5.593-2.337-9.951-6.695-12.233-12.139l-0.055-0.149-30.986-75.039-80.568 10.547c-0.881 0.122-1.9 0.192-2.934 0.192-5.185 0-9.961-1.752-13.768-4.695l0.052 0.039-64.573-49.398-64.532 49.398c-3.755 2.905-8.531 4.657-13.716 4.657-1.035 0-2.053-0.070-3.051-0.205l0.116 0.013-80.609-10.547-31.048 75.039c-2.337 5.593-6.695 9.951-12.139 12.233l-0.149 0.055-75.080 31.089 10.547 80.568c0.122 0.881 0.192 1.9 0.192 2.934 0 5.185-1.752 9.961-4.695 13.768l0.039-0.052-49.336 64.512 49.398 64.532c2.905 3.755 4.657 8.531 4.657 13.716 0 1.035-0.070 2.053-0.205 3.051l0.013-0.116-10.547 80.568 75.1 31.089c5.593 2.337 9.951 6.695 12.233 12.139l0.055 0.149 30.966 75.018 80.568-10.547c0.871-0.119 1.878-0.188 2.901-0.188 5.218 0 10.021 1.774 13.84 4.751l-0.050-0.038 64.532 49.336 64.532-49.336c3.755-2.905 8.531-4.657 13.716-4.657 1.035 0 2.053 0.070 3.051 0.205l-0.116-0.013 80.609 10.486 31.089-75.080c2.337-5.593 6.695-9.951 12.139-12.233l0.149-0.055 75.080-31.089-10.547-80.568c-0.122-0.881-0.192-1.9-0.192-2.934 0-5.185 1.752-9.961 4.695-13.768l-0.039 0.052 49.398-64.532z" />
<glyph unicode="&#xe906;" horiz-adv-x="749" d="M236.544 722.075c0.011 0 0.024 0 0.037 0 5.447 0 10.442 1.933 14.338 5.151l-0.038-0.031c33.368 27.478 76.533 44.148 123.591 44.175h0.006c12.47 0 22.579 10.109 22.579 22.579s-10.109 22.579-22.579 22.579v0c-57.983-0.039-111.161-20.581-152.683-54.767l0.414 0.331c-5.1-4.163-8.329-10.45-8.329-17.49 0-12.442 10.086-22.528 22.528-22.528 0.048 0 0.097 0 0.145 0h-0.007z" />
<glyph unicode="&#xe907;" horiz-adv-x="749" d="M455.004 802.705c-2.253 0.827-4.854 1.306-7.567 1.306-12.468 0-22.575-10.107-22.575-22.575 0-9.754 6.187-18.064 14.85-21.219l0.157-0.050c76.202-27.68 129.65-99.464 129.65-183.731 0-107.701-87.309-195.011-195.011-195.011s-195.011 87.309-195.011 195.011c0 39.836 11.945 76.883 32.448 107.753l-0.449-0.719c2.326 3.493 3.711 7.785 3.711 12.401 0 12.467-10.106 22.573-22.573 22.573-7.851 0-14.766-4.008-18.81-10.090l-0.052-0.083c-24.701-37.133-39.414-82.759-39.414-131.822 0-132.63 107.518-240.148 240.148-240.148s240.148 107.518 240.148 240.148c0 103.769-65.816 192.166-157.982 225.724l-1.67 0.531z" />
<glyph unicode="&#xe908;" d="M31.744 695.82h955.74v-268.964h-955.74v268.964z" />
<glyph unicode="&#xe909;" d="M969.81 732.602h-297.308v90.644c-0.035 12.766-10.392 23.101-23.163 23.101 0 0 0 0 0 0h-274.678c-12.793 0-23.163-10.37-23.163-23.163v0-90.644h-297.308c-29.893-0.035-54.12-24.241-54.19-54.122v-593.046c0.070-29.888 24.297-54.094 54.187-54.129h915.623c29.893 0.035 54.12 24.241 54.19 54.122v593.046c-0.035 29.914-24.276 54.155-54.187 54.19h-0.003zM397.824 800.083h228.352v-67.482h-228.352v67.482zM46.326 678.412c0 4.343 3.521 7.864 7.864 7.864v0h915.62c4.343 0 7.864-3.521 7.864-7.864v-172.339c-0.058-41.238-33.473-74.653-74.706-74.711h-317.24v77.066c0 12.793-10.37 23.163-23.163 23.163h-101.028c-0.030 0-0.066 0-0.102 0-12.793 0-23.163-10.37-23.163-23.163 0 0 0 0 0 0v0-76.984h-317.215c-41.243 0.047-74.664 33.468-74.711 74.707v172.261zM484.598 385.015h54.6v-26.624c0-15.077-12.223-27.3-27.3-27.3s-27.3 12.223-27.3 27.3v0 26.624zM484.598 431.341v53.842h54.6v-53.821h-54.497zM969.81 77.508h-915.62c0 0 0 0 0 0-4.336 0-7.853 3.509-7.864 7.843v325.633c20.313-16.16 46.34-25.928 74.648-25.928 0.022 0 0.044 0 0.067 0h317.232v-26.624c2.017-39.102 34.213-70.043 73.636-70.043s71.619 30.941 73.628 69.863l0.007 0.179v26.624h317.399c0.019 0 0.041 0 0.063 0 28.308 0 54.335 9.768 74.894 26.117l-0.246-0.189v-325.632c-0.012-4.327-3.516-7.832-7.843-7.844h-0.001z" />
<glyph unicode="&#xe90a;" glyph-name="eye" d="M1015.808 462.368c-154.665 190.198-321.659 286.72-496.804 286.72-69.386 0-139.612-15.462-208.998-45.773-54.559-24.044-108.687-57.344-160.727-98.857-88.064-70.431-139.817-140.657-141.926-143.585-4.578-6.196-7.328-13.985-7.328-22.416 0-8.919 3.077-17.12 8.227-23.598l-0.060 0.078c154.46-190.464 321.659-286.72 496.804-286.72 69.386 0 139.612 15.462 208.998 45.773 54.559 24.044 108.687 57.344 160.727 98.857 88.064 70.431 139.817 140.657 141.906 143.585 4.584 6.198 7.338 13.992 7.338 22.43 0 8.913-3.073 17.109-8.217 23.585l0.060-0.078zM826.245 330.272c-72.724-57.897-187.269-126.874-321.044-126.874-144.425 0-285.286 79.217-419.062 235.52 33.972 39.488 70.5 74.822 110.011 106.599l1.605 1.248c72.581 57.938 187.269 126.915 320.942 126.915 144.425 0 285.286-79.217 419.062-235.52-33.92-39.561-70.455-74.914-110.017-106.649l-1.599-1.24zM650.568 476.172c-20.755-0.058-37.564-16.867-37.622-37.616v-0.006c0-55.864-45.287-101.151-101.151-101.151s-101.151 45.287-101.151 101.151c0 55.857 45.275 101.139 101.129 101.151h0.001c20.778 0 37.622 16.844 37.622 37.622s-16.844 37.622-37.622 37.622v0c-0.012 0-0.027 0-0.041 0-97.42 0-176.394-78.974-176.394-176.394s78.974-176.394 176.394-176.394c97.42 0 176.394 78.974 176.394 176.394v0c-0.058 20.733-16.832 37.529-37.551 37.622h-0.009z" />
<glyph unicode="&#xe90b;" glyph-name="fb" d="M512 886.857c247.424 0 448-200.576 448-448s-200.576-448-448-448c-247.424 0-448 200.576-448 448v0c0 247.424 200.576 448 448 448v0zM512 950.857c-282.77 0-512-229.23-512-512s229.23-512 512-512c282.77 0 512 229.23 512 512v0c0 282.77-229.23 512-512 512v0 0zM547.52 212.937h-96v225.92h-48v77.76h48v46.72c0 64 26.88 101.12 103.68 101.12h64v-77.76h-39.68c-29.76 0-32-10.88-32-32v-39.040h72.32l-8.32-76.8h-64v-225.92z" />
<glyph unicode="&#xe90c;" glyph-name="gp" d="M512 886.857c247.424 0 448-200.576 448-448s-200.576-448-448-448c-247.424 0-448 200.576-448 448v0c0 247.424 200.576 448 448 448v0zM512 950.857c-282.77 0-512-229.23-512-512s229.23-512 512-512c282.77 0 512 229.23 512 512v0c0 282.77-229.23 512-512 512v0 0zM437.12 485.257v-78.4h106.88c-9.020-45.334-48.483-79.029-95.817-79.029-3.898 0-7.743 0.229-11.521 0.673l0.458-0.044c-64.949 0-117.6 52.651-117.6 117.6s52.651 117.6 117.6 117.6v0c0.537 0.009 1.171 0.015 1.805 0.015 28.891 0 55.226-10.939 75.091-28.901l-0.097 0.086c16.32 16.32 14.72 18.56 56.32 57.6-34.755 30.981-80.836 49.912-131.339 49.912-109.22 0-197.76-88.54-197.76-197.76 0-108.594 87.528-196.744 195.884-197.751l0.095-0.001c162.88 0 202.88 142.080 189.76 237.12h-189.76zM792.96 481.417v68.48h-48.64v-68.48h-70.4v-48.96h70.4v-70.4h48.96v70.4h68.48v48.64h-68.8z" />
<glyph unicode="&#xe90d;" glyph-name="inst" d="M512 886.857c247.424 0 448-200.576 448-448s-200.576-448-448-448c-247.424 0-448 200.576-448 448v0c0 247.424 200.576 448 448 448v0zM512 950.857c-282.77 0-512-229.23-512-512s229.23-512 512-512c282.77 0 512 229.23 512 512v0c0 282.77-229.23 512-512 512v0 0zM512 648.777c68.48 0 76.48 0 103.36 0 17.186-0.23 33.541-3.497 48.647-9.286l-0.967 0.326c22.444-8.77 39.87-26.196 48.442-48.066l0.198-0.574c5.439-14.040 8.703-30.281 8.959-47.252l0.001-0.108c0-26.88 0-35.2 0-103.36s0-76.48 0-103.36c-0.25-17.078-3.515-33.32-9.284-48.319l0.324 0.959c-8.805-22.422-26.218-39.835-48.065-48.44l-0.575-0.2c-14.14-5.457-30.493-8.723-47.58-8.959l-0.1-0.001c-26.88 0-35.2 0-103.36 0s-76.48 0-103.36 0c-17.187 0.237-33.541 3.503-48.65 9.286l0.97-0.326c-22.422 8.805-39.835 26.218-48.44 48.065l-0.2 0.575c-5.439 14.040-8.703 30.281-8.959 47.252l-0.001 0.108c0 26.88 0 35.2 0 103.36s0 76.48 0 103.36c0.27 17.081 3.534 33.32 9.286 48.327l-0.326-0.967c8.77 22.444 26.196 39.87 48.066 48.442l0.574 0.198c14.040 5.426 30.279 8.69 47.245 8.959l0.115 0.001c26.88 0 35.2 0 103.36 0zM512 694.857c-69.44 0-78.080 0-105.6 0-22.412-0.455-43.684-4.759-63.371-12.273l1.291 0.433c-34.495-13.591-61.289-40.385-74.571-73.994l-0.309-0.886c-7.764-18.783-12.626-40.553-13.431-63.355l-0.009-0.325c0-27.2 0-35.84 0-105.6s0-78.080 0-105.6c0.455-22.412 4.759-43.684 12.273-63.371l-0.433 1.291c13.625-34.474 40.406-61.255 73.993-74.57l0.887-0.31c18.783-7.739 40.549-12.598 63.342-13.43l0.338-0.010c27.2 0 36.16 0 105.6 0s78.080 0 105.6 0c22.414 0.469 43.685 4.771 63.376 12.274l-1.296-0.434c34.495 13.591 61.289 40.385 74.571 73.994l0.309 0.886c7.777 18.783 12.641 40.555 13.431 63.361l0.009 0.319c0 27.2 0 36.16 0 105.6s0 78.080 0 105.6c-0.435 22.409-4.74 43.684-12.271 63.363l0.431-1.283c-13.556 34.517-40.363 61.324-73.995 74.573l-0.885 0.307c-18.783 7.771-40.554 12.633-63.358 13.431l-0.322 0.009c-27.52 0-36.16 0-105.6 0v0zM512 570.057c-72.361-0.364-130.88-59.107-130.88-131.518 0-72.636 58.884-131.52 131.52-131.52s131.52 58.884 131.52 131.52c0 0.112 0 0.224 0 0.336v-0.017c-0.181 72.499-58.995 131.202-131.52 131.202-0.225 0-0.45-0.001-0.675-0.002h0.035zM512 353.097c-47.049 0.182-85.119 38.365-85.119 85.439 0 47.187 38.253 85.44 85.44 85.44 47.074 0 85.257-38.070 85.439-85.102v-0.017c0-0.095 0.001-0.208 0.001-0.321 0-47.187-38.253-85.44-85.44-85.44-0.113 0-0.225 0-0.338 0.001h0.017zM678.080 577.097c0-17.673-14.327-32-32-32s-32 14.327-32 32c0 17.673 14.327 32 32 32v0c17.673 0 32-14.327 32-32v0 0z" />
<glyph unicode="&#xe90e;" d="M893.952 559.177c0-145.061-117.595-262.656-262.656-262.656s-262.656 117.595-262.656 262.656c0 145.061 117.595 262.656 262.656 262.656s262.656-117.595 262.656-262.656z" />
<glyph unicode="&#xe90f;" d="M908.923 835.78c-70.713 71.086-168.601 115.079-276.764 115.079-0.375 0-0.75-0.001-1.125-0.002h0.058c-216.658 0-392.929-176.271-392.929-392.909-0.001-0.328-0.002-0.716-0.002-1.103 0-100.020 37.65-191.247 99.55-260.28l-0.323 0.366-65.864-65.864-16.384 16.384c-4.185 4.21-9.98 6.815-16.384 6.815s-12.199-2.605-16.383-6.814l-215.594-215.758c-4.205-4.188-6.807-9.982-6.807-16.384s2.602-12.196 6.806-16.383l65.373-65.373c4.185-4.21 9.98-6.815 16.384-6.815s12.199 2.605 16.383 6.814l215.635 215.799c4.205 4.188 6.807 9.982 6.807 16.384s-2.602 12.196-6.806 16.383l-16.385 16.385 65.864 65.864c68.667-61.577 159.894-99.227 259.914-99.227 0.381 0 0.761 0.001 1.142 0.002h-0.059c216.699-0.123 392.97 176.148 392.97 392.806 0.001 0.317 0.001 0.692 0.001 1.067 0 108.163-43.993 206.051-115.061 276.747l-0.017 0.017zM88.494-17.335l-32.768 32.768 183.050 183.050 32.768-32.768zM631.091 211.242c-191.48 0-346.706 155.226-346.706 346.706v0c0 191.16 155.525 346.685 346.685 346.685 191.473 0 346.694-155.214 346.706-346.684v-0.001c0-191.181-155.525-346.706-346.685-346.706z" />
<glyph unicode="&#xe910;" d="M631.091 858.41c-165.683 0-300.462-134.779-300.462-300.462s134.799-300.462 300.462-300.462 300.462 134.779 300.462 300.462-134.881 300.462-300.462 300.462zM631.091 303.709c-140.412 0-254.239 113.827-254.239 254.239s113.827 254.239 254.239 254.239c140.412 0 254.239-113.827 254.239-254.239v0c-0.151-140.355-113.885-254.096-254.223-254.259h-0.016z" />
<glyph unicode="&#xe911;" d="M745.472 704.974l-143.155-143.114c-4.193-4.193-6.786-9.986-6.786-16.384 0-12.797 10.374-23.17 23.17-23.17 6.398 0 12.191 2.593 16.384 6.786v0l143.032 143.237c4.759 4.254 7.74 10.411 7.74 17.264 0 12.77-10.352 23.122-23.122 23.122-6.853 0-13.010-2.981-17.244-7.718l-0.020-0.022z" />
<glyph unicode="&#xe912;" d="M546.55 506.113l-62.505-62.505c-4.193-4.193-6.786-9.986-6.786-16.384 0-12.797 10.374-23.17 23.17-23.17 6.398 0 12.191 2.593 16.384 6.786l62.505 62.505c4.193 4.193 6.786 9.986 6.786 16.384 0 12.797-10.374 23.17-23.17 23.17-6.398 0-12.191-2.593-16.384-6.786v0z" />
<glyph unicode="&#xe913;" d="M667.771 758.058c-4.188 4.205-9.982 6.807-16.384 6.807s-12.196-2.602-16.383-6.806l-204.125-204.125c-4.193-4.193-6.786-9.986-6.786-16.384 0-12.797 10.374-23.17 23.17-23.17 6.398 0 12.191 2.593 16.384 6.786l204.124 204.124c4.205 4.188 6.807 9.982 6.807 16.384s-2.602 12.196-6.806 16.383l-0.001 0.001z" />
<glyph unicode="&#xe914;" glyph-name="mouse" d="M452.134-67.601c-133.939 28.409-230.255 125.961-255.942 259.227-8.272 42.918-8.272 457.506 0 500.424 22.303 115.71 97.956 204.945 208.987 246.505 32.305 12.092 34.14 12.303 107.333 12.303s75.027-0.21 107.333-12.303c113.597-42.521 191.891-137.455 210.491-255.23 3.395-21.494 4.35-96.121 3.323-259.6-1.243-198.052-2.343-232.47-8.040-251.632-12.819-43.115-23.956-68.346-42.986-97.379-45.969-70.135-109.652-115.746-193.584-138.649-31.315-8.545-104.655-10.509-136.915-3.666zM566.851-2.976c72.241 15.034 141.993 68.989 174.541 135.013 28.111 57.024 28.59 62.215 28.59 309.801 0 248.070-0.483 253.256-28.851 309.937-42.303 84.524-133.622 140.741-228.619 140.741s-186.316-56.217-228.619-140.741c-28.368-56.681-28.851-61.867-28.851-309.937s0.483-253.256 28.851-309.937c51.525-102.949 168.485-158.7 282.959-134.877zM498.24 528.196l-9.88 9.88v185.889l9.88 9.88c13.071 13.071 31.572 13.071 44.643 0l9.88-9.88v-185.889l-9.88-9.88c-6.228-6.228-14.479-9.88-22.321-9.88s-16.093 3.652-22.321 9.88z" />
<glyph unicode="&#xe915;" horiz-adv-x="946" d="M890.757 427.388h-66.253c-19.784 42.373-50.606 80.855-90.112 112.456-0.799 47.104-4.096 82.801-10.24 108.995-9.462 40.571-27.361 61.133-53.248 61.133-28.221 0-88.269-35.287-134.472-87.204-18.947 2.79-40.818 4.383-63.061 4.383-0.013 0-0.027 0-0.040 0h0.002c-99.738 0-193.7-32.010-264.602-90.112-64.307-52.736-102.871-121.262-110.592-195.318-29.112 9.847-49.703 36.899-49.746 68.767v0.005c0 13.335-10.81 24.146-24.146 24.146s-24.146-10.81-24.146-24.146v0c0.031-58.418 41.513-107.138 96.626-118.345l0.777-0.132c6.472-76.964 46.92-149.504 113.664-203.244l-20.828-117.637c-0.223-1.233-0.351-2.652-0.351-4.101 0-11.882 8.582-21.759 19.886-23.771l0.146-0.022 90.378-15.933c1.262-0.234 2.714-0.368 4.198-0.368 11.851 0 21.709 8.538 23.756 19.799l0.022 0.147 12.964 73.544c39.47-12.511 84.864-19.721 131.942-19.721s92.473 7.21 135.14 20.585l-3.197-0.864 12.964-73.544c2.069-11.408 11.927-19.947 23.778-19.947 1.483 0 2.936 0.134 4.345 0.39l-0.147-0.022 90.337 15.933c11.408 2.069 19.947 11.927 19.947 23.778 0 1.483-0.134 2.936-0.39 4.345l0.022-0.147-20.746 117.637c39.076 31.478 69.53 69.632 89.129 111.636h66.294c30.539 0 55.296 24.757 55.296 55.296v0 116.326c-0.012 30.53-24.764 55.276-55.296 55.276v0zM890.757 248.7h-82.145c-0.023 0-0.050 0-0.077 0-10.135 0-18.812-6.244-22.393-15.096l-0.058-0.162c-17.388-43.93-49.009-83.702-91.464-115.036-5.935-4.449-9.735-11.468-9.735-19.374 0-1.498 0.136-2.965 0.398-4.388l-0.023 0.148 19.128-108.257-42.803-7.557-13.701 77.722c-2.069 11.409-11.926 19.948-23.778 19.948-3.146 0-6.151-0.602-8.907-1.696l0.163 0.057c-42.163-16.514-90.983-26.086-142.039-26.086s-99.876 9.571-144.764 27.018l2.725-0.932c-2.593 1.037-5.598 1.639-8.744 1.639-11.852 0-21.709-8.539-23.756-19.801l-0.022-0.147-13.701-77.722-42.803 7.557 19.005 108.257c0.228 1.245 0.358 2.678 0.358 4.141 0 7.952-3.844 15.006-9.775 19.406l-0.065 0.046c-67.932 50.135-106.906 121.446-106.906 195.543 0 146.104 147.313 264.97 328.397 264.97 0.048 0 0.104 0 0.161 0 24.189 0 47.883-2.116 70.908-6.173l-2.441 0.356c1.231-0.223 2.648-0.35 4.095-0.35 7.52 0 14.237 3.438 18.666 8.827l0.034 0.042c38.134 46.715 87.532 75.551 103.834 79.647 4.096-6.021 16.876-32.543 17.674-133.53 0.062-7.825 3.836-14.755 9.646-19.125l0.062-0.045c41.82-31.191 73.032-70.656 90.255-114.156 3.639-9.013 12.315-15.258 22.451-15.258 0.027 0 0.054 0 0.082 0h82.059c0 0 0 0 0 0 3.85 0 6.972-3.115 6.984-6.962v-10.876h-2.048c-13.335 0-24.146-10.81-24.146-24.146s10.81-24.146 24.146-24.146h2.048v-57.344c-0.012-3.848-3.134-6.963-6.984-6.963 0 0 0 0 0 0v0z" />
<glyph unicode="&#xe916;" horiz-adv-x="946" d="M473.272 692.481c71.348 0 129.188 57.839 129.188 129.188s-57.839 129.188-129.188 129.188c-71.348 0-129.188-57.839-129.188-129.188v0c0.082-71.316 57.872-129.106 129.18-129.188h0.008zM473.272 902.565c44.678 0 80.896-36.218 80.896-80.896s-36.218-80.896-80.896-80.896c-44.678 0-80.896 36.218-80.896 80.896v0c0.047 44.659 36.237 80.849 80.891 80.896h0.005z" />
<glyph unicode="&#xe917;" horiz-adv-x="946" d="M567.726 521.883c-28.241 9.159-60.736 14.44-94.464 14.44s-66.223-5.281-96.702-15.060l2.238 0.62c-9.848-3.198-16.841-12.292-16.841-23.020 0-13.339 10.814-24.153 24.153-24.153 2.612 0 5.126 0.415 7.482 1.181l-0.171-0.048c23.88 7.729 51.356 12.185 79.872 12.185s55.992-4.456 81.769-12.709l-1.897 0.525c2.080-0.649 4.472-1.022 6.951-1.022 13.335 0 24.146 10.81 24.146 24.146 0 10.613-6.848 19.627-16.366 22.865l-0.17 0.050z" />
<glyph unicode="&#xe918;" horiz-adv-x="946" d="M560.005 822.857c0-49.767-38.511-90.112-86.016-90.112s-86.016 40.345-86.016 90.112c0 49.767 38.511 90.112 86.016 90.112s86.016-40.345 86.016-90.112z" />
<glyph unicode="&#xe919;" glyph-name="tw" d="M512 886.857c247.424 0 448-200.576 448-448s-200.576-448-448-448c-247.424 0-448 200.576-448 448v0c0 247.424 200.576 448 448 448v0zM512 950.857c-282.77 0-512-229.23-512-512s229.23-512 512-512c282.77 0 512 229.23 512 512v0c0 282.77-229.23 512-512 512v0 0zM698.88 548.297c20.993 13.569 36.629 33.877 43.963 57.814l0.197 0.746c-18.371-11.661-39.807-20.537-62.731-25.376l-1.269-0.224c-17.656 19.687-43.172 32.015-71.568 32.015-0.602 0-1.203-0.006-1.802-0.017l0.090 0.001c-55.669-1.587-100.193-47.094-100.193-103.001 0-0.914 0.012-1.825 0.036-2.734l-0.003 0.134c0-0.107-0.001-0.234-0.001-0.361 0-8.376 0.933-16.535 2.7-24.377l-0.14 0.738c-84.52 5.119-158.321 47.001-206.223 109.722l-0.497 0.678c-8.373-15.064-13.341-33.021-13.44-52.13v-0.030c-0.002-0.266-0.004-0.581-0.004-0.897 0-35.7 17.398-67.335 44.179-86.891l0.305-0.212c-16.494 0.728-31.728 5.509-44.921 13.363l0.441-0.243c-0.010-0.543-0.016-1.184-0.016-1.826 0-49.283 34.070-90.608 79.941-101.708l0.715-0.146c-7.947-2.407-17.084-3.807-26.542-3.84h-0.018c-0.010 0-0.023 0-0.035 0-6.672 0-13.18 0.699-19.455 2.028l0.611-0.108c11.602-41.818 48.352-72.383 92.565-74.551l0.235-0.009c-33.484-28.18-77.086-45.303-124.687-45.303-8.387 0-16.649 0.532-24.755 1.563l0.963-0.1c43.010-29.64 96.236-47.347 153.597-47.36h0.003c184.64 0 285.12 160 285.12 300.8 0 4.48 0 9.28 0 13.76 19.731 15.202 36.318 33.318 49.416 53.874l0.504 0.846c-16.751-8.081-36.197-13.938-56.658-16.542l-0.942-0.098z" />
<glyph unicode="&#xe91a;" glyph-name="vk" d="M512 886.857c247.424 0 448-200.576 448-448s-200.576-448-448-448c-247.424 0-448 200.576-448 448v0c0 247.424 200.576 448 448 448v0zM512 950.857c-282.77 0-512-229.23-512-512s229.23-512 512-512c282.77 0 512 229.23 512 512v0c0 282.77-229.23 512-512 512v0 0zM399.36 623.177c30.713 4.919 66.123 7.73 102.189 7.73 2.887 0 5.77-0.018 8.648-0.054l-0.437 0.004c5.346 0.488 11.563 0.767 17.846 0.767 34.102 0 66.287-8.207 94.688-22.753l-1.173 0.546c27.161-13.806 45.446-41.543 45.446-73.55 0-0.355-0.002-0.71-0.007-1.064l0.001 0.054c-0.715-38.239-26.444-70.279-61.476-80.489l-0.604-0.151c42.904-9.921 74.468-47.616 74.88-92.754v-0.046c0.001-0.168 0.002-0.367 0.002-0.566 0-32.393-15.329-61.207-39.128-79.581l-0.233-0.173c-27.52-21.76-73.28-34.24-148.48-34.24-2.273-0.028-4.957-0.044-7.645-0.044-29.911 0-59.356 1.993-88.211 5.854l3.376-0.369v370.88zM483.84 478.857h28.16c44.8 0 68.8 18.56 68.8 46.4s-21.76 43.52-60.48 43.52c-1.057 0.017-2.304 0.026-3.554 0.026-11.613 0-23.034-0.824-34.207-2.416l1.281 0.15v-88zM483.84 311.497c4.781-0.288 10.371-0.452 16-0.452s11.218 0.164 16.766 0.488l-0.766-0.036c38.72 0 72.96 14.4 72.96 54.4s-34.24 53.12-76.8 53.12h-28.16v-108.16z" />
<glyph unicode="&#xe91b;" glyph-name="about1" d="M745.984 467.427c83.168 0 150.589 67.421 150.589 150.589s-67.421 150.589-150.589 150.589c-83.168 0-150.589-67.421-150.589-150.589v0c0.093-83.131 67.459-150.496 150.58-150.589h0.009zM745.984 722.259c57.563-0.012 104.223-46.678 104.223-104.243 0-57.572-46.671-104.243-104.243-104.243s-104.243 46.671-104.243 104.243v0c0.116 57.532 46.73 104.139 104.254 104.243h0.010zM745.984 411.823c-82.834-0.031-157.202-36.254-208.153-93.714l-0.252-0.289c-3.606-4.072-5.808-9.459-5.808-15.36 0-12.822 10.394-23.216 23.216-23.216 6.92 0 13.133 3.028 17.387 7.831l0.021 0.024c37.655 42.461 90.269 70.922 149.51 77.085l0.998 0.084v-22.897c0-12.793 10.37-23.163 23.163-23.163s23.163 10.37 23.163 23.163v0 22.958c117.496-12.342 208.299-110.806 208.445-230.508v-0.015c0-12.793 10.37-23.163 23.163-23.163s23.163 10.37 23.163 23.163v0c0 153.293-124.723 278.016-278.016 278.016zM278.016 467.427c83.168 0 150.589 67.421 150.589 150.589s-67.421 150.589-150.589 150.589c-83.168 0-150.589-67.421-150.589-150.589v0c0.093-83.131 67.459-150.496 150.58-150.589h0.009zM278.016 722.259c57.572 0 104.243-46.671 104.243-104.243s-46.671-104.243-104.243-104.243c-57.572 0-104.243 46.671-104.243 104.243v0c0.116 57.525 46.718 104.127 104.232 104.243h0.011zM278.016 411.823c-153.293 0-278.016-124.723-278.016-278.016 0-12.793 10.37-23.163 23.163-23.163s23.163 10.37 23.163 23.163v0c0.15 119.736 90.985 218.211 207.502 230.437l1.005 0.085v-22.917c0-12.793 10.37-23.163 23.163-23.163s23.163 10.37 23.163 23.163v0 22.917c117.531-12.302 208.376-110.78 208.527-230.507v-0.016c0-12.793 10.37-23.163 23.163-23.163s23.163 10.37 23.163 23.163v0c0 153.293-124.703 278.016-277.996 278.016zM278.016 295.067c-12.793 0-23.163-10.37-23.163-23.163v-138.998c0-12.793 10.37-23.163 23.163-23.163s23.163 10.37 23.163 23.163v0 138.998c0 12.793-10.37 23.163-23.163 23.163v0zM745.984 295.067c-12.793 0-23.163-10.37-23.163-23.163v-138.998c0-12.793 10.37-23.163 23.163-23.163s23.163 10.37 23.163 23.163v0 138.998c0 12.793-10.37 23.163-23.163 23.163v0z" />
</font>
</defs>
</svg>
