<svg id="Layer_1" data-name="Layer 1" xmlns="http://www.w3.org/2000/svg" viewBox="0 0 500 435.48"><defs><style>.cls-1{fill:#ffe825;}.cls-2{fill:#212121;}</style></defs><title>megafon</title><path class="cls-1" d="M96.77,322.58H24.21A24.24,24.24,0,0,1,0,298.36V185.5a24.24,24.24,0,0,1,24.21-24.21H96.77V322.58Z" transform="translate(0 -32.26)"/><rect class="cls-2" x="80.65" y="137.1" width="16.13" height="145.16"/><path class="cls-2" d="M379,104.84H362.9a8.07,8.07,0,0,1-8.06-8.06H338.71A24.22,24.22,0,0,0,362.9,121V129H379V121a24.19,24.19,0,0,0,0-48.39H362.9a8.06,8.06,0,0,1,0-16.13H379a8.07,8.07,0,0,1,8.06,8.06h16.13A24.22,24.22,0,0,0,379,40.32V32.26H362.9v8.06a24.19,24.19,0,0,0,0,48.39H379A8.06,8.06,0,0,1,379,104.84Z" transform="translate(0 -32.26)"/><path class="cls-2" d="M500,137.1v-4a20.18,20.18,0,0,0-16.13-19.75v-8.48H467.74v8.48a20.16,20.16,0,0,0,4,39.91h8.06a4,4,0,0,1,0,8.06h-8.06a4,4,0,0,1-4-4v-4H451.61v4A20.18,20.18,0,0,0,467.74,177v8.48h16.13V177a20.16,20.16,0,0,0-4-39.91h-8.06a4,4,0,0,1,0-8.06h8.06a4,4,0,0,1,4,4v4H500Z" transform="translate(0 -32.26)"/><path class="cls-2" d="M419.35,262.1a20.18,20.18,0,0,0-20.16-20.16h-8.06a4,4,0,1,1,0-8.06h8.06a4,4,0,0,1,4,4v4h16.13v-4a20.18,20.18,0,0,0-16.13-19.75v-8.48H387.1v8.48a20.16,20.16,0,0,0,4,39.91h8.06a4,4,0,1,1,0,8.06h-8.06a4,4,0,0,1-4-4v-4H371v4a20.18,20.18,0,0,0,16.13,19.75v8.48h16.13v-8.48A20.18,20.18,0,0,0,419.35,262.1Z" transform="translate(0 -32.26)"/><path class="cls-2" d="M435.48,379h16.13a8.07,8.07,0,0,1,8.06,8.06h16.13a24.22,24.22,0,0,0-24.19-24.19v-8.06H435.48v8.06a24.19,24.19,0,1,0,0,48.39h16.13a8.06,8.06,0,0,1,0,16.13H435.48a8.07,8.07,0,0,1-8.06-8.06H411.29a24.22,24.22,0,0,0,24.19,24.19v8.06h16.13v-8.06a24.19,24.19,0,0,0,0-48.39H435.48A8.06,8.06,0,1,1,435.48,379Z" transform="translate(0 -32.26)"/><rect class="cls-2" x="336.23" y="157.22" width="61.42" height="16.12" transform="translate(-35.44 125.56) rotate(-23.19)"/><rect class="cls-2" x="358.87" y="303.99" width="16.12" height="61.41" transform="translate(-85.24 507.85) rotate(-66.8)"/><rect class="cls-2" x="32.26" y="169.35" width="32.26" height="16.13"/><rect class="cls-2" x="32.26" y="201.61" width="32.26" height="16.13"/><rect class="cls-2" x="32.26" y="233.87" width="32.26" height="16.13"/><path class="cls-1" d="M322.58,373.6l-56.45-16.14V126.4l56.45-16.13V373.6Z" transform="translate(0 -32.26)"/><path class="cls-2" d="M282.26,121.8L144,161.29H80.65V443.55a24.22,24.22,0,0,0,24.19,24.19H121a24.22,24.22,0,0,0,24.19-24.19V354.84a32.18,32.18,0,0,0,30.78-23.14l106.31,30.37V121.8ZM129,443.55a8.07,8.07,0,0,1-8.06,8.06H104.84a8.07,8.07,0,0,1-8.06-8.06v-121H129v121Zm16.13-104.84V322.9l15.35,4.39A16.1,16.1,0,0,1,145.16,338.71Zm121,2L147.37,306.76l-2.21,0v-0.29H96.77v-129h48.39l121-34.23v197.5Z" transform="translate(0 -32.26)"/></svg>