<svg id="Layer_1" data-name="Layer 1" xmlns="http://www.w3.org/2000/svg" viewBox="0 0 500 435.48"><defs><style>.cls-1{fill:#ffe825}.cls-2{fill:#212121}</style></defs><title>megafon</title><path class="cls-1" d="M96.77 322.58H24.21A24.24 24.24 0 0 1 0 298.36V185.5a24.24 24.24 0 0 1 24.21-24.21h72.56v161.29z" transform="translate(0 -32.26)"/><path class="cls-2" d="M80.65 137.1h16.13v145.16H80.65z"/><path class="cls-2" d="M379 104.84h-16.1a8.07 8.07 0 0 1-8.06-8.06h-16.13A24.22 24.22 0 0 0 362.9 121v8H379v-8a24.19 24.19 0 0 0 0-48.39h-16.1a8.06 8.06 0 0 1 0-16.13H379a8.07 8.07 0 0 1 8.06 8.06h16.13A24.22 24.22 0 0 0 379 40.32v-8.06h-16.1v8.06a24.19 24.19 0 0 0 0 48.39H379a8.06 8.06 0 0 1 0 16.13zM500 137.1v-4a20.18 20.18 0 0 0-16.13-19.75v-8.48h-16.13v8.48a20.16 20.16 0 0 0 4 39.91h8.06a4 4 0 0 1 0 8.06h-8.06a4 4 0 0 1-4-4v-4h-16.13v4A20.18 20.18 0 0 0 467.74 177v8.48h16.13V177a20.16 20.16 0 0 0-4-39.91h-8.06a4 4 0 0 1 0-8.06h8.06a4 4 0 0 1 4 4v4H500zM419.35 262.1a20.18 20.18 0 0 0-20.16-20.16h-8.06a4 4 0 1 1 0-8.06h8.06a4 4 0 0 1 4 4v4h16.13v-4a20.18 20.18 0 0 0-16.13-19.75v-8.48H387.1v8.48a20.16 20.16 0 0 0 4 39.91h8.06a4 4 0 1 1 0 8.06h-8.06a4 4 0 0 1-4-4v-4H371v4a20.18 20.18 0 0 0 16.13 19.75v8.48h16.13v-8.48a20.18 20.18 0 0 0 16.09-19.75zM435.48 379h16.13a8.07 8.07 0 0 1 8.06 8.06h16.13a24.22 24.22 0 0 0-24.19-24.19v-8.06h-16.13v8.06a24.19 24.19 0 1 0 0 48.39h16.13a8.06 8.06 0 0 1 0 16.13h-16.13a8.07 8.07 0 0 1-8.06-8.06h-16.13a24.22 24.22 0 0 0 24.19 24.19v8.06h16.13v-8.06a24.19 24.19 0 0 0 0-48.39h-16.13a8.06 8.06 0 1 1 0-16.13z" transform="translate(0 -32.26)"/><path class="cls-2" transform="rotate(-23.19 288.256 149.143)" d="M336.23 157.22h61.42v16.12h-61.42z"/><path class="cls-2" transform="rotate(-66.8 342.477 318.562)" d="M358.87 303.99h16.12v61.41h-16.12z"/><path class="cls-2" d="M32.26 169.35h32.26v16.13H32.26zM32.26 201.61h32.26v16.13H32.26zM32.26 233.87h32.26V250H32.26z"/><path class="cls-1" d="M322.58 373.6l-56.45-16.14V126.4l56.45-16.13V373.6z" transform="translate(0 -32.26)"/><path class="cls-2" d="M282.26 121.8L144 161.29H80.65v282.26a24.22 24.22 0 0 0 24.19 24.19H121a24.22 24.22 0 0 0 24.19-24.19v-88.71a32.18 32.18 0 0 0 30.78-23.14l106.31 30.37V121.8zM129 443.55a8.07 8.07 0 0 1-8.06 8.06h-16.1a8.07 8.07 0 0 1-8.06-8.06v-121H129v121zm16.13-104.84V322.9l15.35 4.39a16.1 16.1 0 0 1-15.32 11.42zm121 2l-118.76-33.95h-2.21v-.29H96.77v-129h48.39l121-34.23v197.5z" transform="translate(0 -32.26)"/></svg>